<svg width="67" height="22" viewBox="0 0 67 22" fill="none" xmlns="http://www.w3.org/2000/svg">
<path d="M6.74792 19.24C4.61992 19.24 3.02792 18.648 1.97192 17.464C0.931916 16.28 0.363916 14.728 0.267916 12.808C0.251916 12.376 0.243916 11.64 0.243916 10.6C0.243916 9.544 0.251916 8.792 0.267916 8.344C0.347916 6.456 0.923916 4.92 1.99592 3.736C3.06792 2.552 4.65192 1.96 6.74792 1.96C8.85992 1.96 10.4519 2.552 11.5239 3.736C12.5959 4.92 13.1639 6.456 13.2279 8.344C13.2599 8.792 13.2759 9.544 13.2759 10.6C13.2759 11.64 13.2599 12.376 13.2279 12.808C13.1479 14.728 12.5799 16.28 11.5239 17.464C10.4839 18.648 8.89192 19.24 6.74792 19.24ZM6.74792 16.48C7.75592 16.48 8.50792 16.152 9.00392 15.496C9.49992 14.824 9.76392 13.888 9.79592 12.688C9.82792 11.76 9.84392 11.056 9.84392 10.576C9.84392 10.048 9.82792 9.352 9.79592 8.488C9.76392 7.304 9.49992 6.376 9.00392 5.704C8.50792 5.032 7.75592 4.696 6.74792 4.696C5.75592 4.696 5.00392 5.032 4.49192 5.704C3.99592 6.376 3.73192 7.304 3.69992 8.488C3.68392 8.92 3.67592 9.616 3.67592 10.576C3.67592 11.52 3.68392 12.224 3.69992 12.688C3.73192 13.888 3.99592 14.824 4.49192 15.496C5.00392 16.152 5.75592 16.48 6.74792 16.48ZM21.2974 19C21.1374 19 21.0014 18.944 20.8894 18.832C20.7774 18.72 20.7214 18.584 20.7214 18.424V5.992L17.0734 8.8C16.9774 8.88 16.8654 8.92 16.7374 8.92C16.5454 8.92 16.3854 8.832 16.2574 8.656L15.2494 7.36C15.1694 7.232 15.1294 7.112 15.1294 7C15.1294 6.808 15.2174 6.648 15.3934 6.52L20.7694 2.368C20.9134 2.256 21.1134 2.2 21.3694 2.2H23.4814C23.6574 2.2 23.7934 2.256 23.8894 2.368C24.0014 2.464 24.0574 2.6 24.0574 2.776V18.424C24.0574 18.584 24.0014 18.72 23.8894 18.832C23.7934 18.944 23.6574 19 23.4814 19H21.2974Z" fill="#303030"/>
<path d="M32.3231 21.016C32.1951 21.016 32.0831 20.968 31.9871 20.872C31.8911 20.776 31.8431 20.656 31.8431 20.512C31.8431 20.416 31.8591 20.328 31.8911 20.248L40.0751 0.639999C40.1231 0.511999 40.2031 0.399999 40.3151 0.303999C40.4431 0.191999 40.6031 0.136 40.7951 0.136H42.3551C42.4831 0.136 42.5951 0.184 42.6911 0.279999C42.8031 0.375999 42.8591 0.495999 42.8591 0.639999C42.8591 0.687999 42.8351 0.776 42.7871 0.904L34.6031 20.512C34.4431 20.848 34.1951 21.016 33.8591 21.016H32.3231ZM52.3349 19.16C50.9162 19.16 49.8549 18.7653 49.1509 17.976C48.4575 17.1867 48.0789 16.152 48.0149 14.872C48.0042 14.584 47.9989 14.0933 47.9989 13.4C47.9989 12.696 48.0042 12.1947 48.0149 11.896C48.0682 10.6373 48.4522 9.61333 49.1669 8.824C49.8815 8.03467 50.9375 7.64 52.3349 7.64C53.7429 7.64 54.8042 8.03467 55.5189 8.824C56.2335 9.61333 56.6122 10.6373 56.6549 11.896C56.6762 12.1947 56.6869 12.696 56.6869 13.4C56.6869 14.0933 56.6762 14.584 56.6549 14.872C56.6015 16.152 56.2229 17.1867 55.5189 17.976C54.8255 18.7653 53.7642 19.16 52.3349 19.16ZM52.3349 17.32C53.0069 17.32 53.5082 17.1013 53.8389 16.664C54.1695 16.216 54.3455 15.592 54.3669 14.792C54.3882 14.1733 54.3989 13.704 54.3989 13.384C54.3989 13.032 54.3882 12.568 54.3669 11.992C54.3455 11.2027 54.1695 10.584 53.8389 10.136C53.5082 9.688 53.0069 9.464 52.3349 9.464C51.6735 9.464 51.1722 9.688 50.8309 10.136C50.5002 10.584 50.3242 11.2027 50.3029 11.992C50.2922 12.28 50.2869 12.744 50.2869 13.384C50.2869 14.0133 50.2922 14.4827 50.3029 14.792C50.3242 15.592 50.5002 16.216 50.8309 16.664C51.1722 17.1013 51.6735 17.32 52.3349 17.32ZM62.5785 19.16C61.6398 19.16 60.8398 19.0107 60.1785 18.712C59.5278 18.4133 59.0371 18.04 58.7065 17.592C58.3865 17.1333 58.2158 16.664 58.1945 16.184C58.1945 16.088 58.2265 16.0133 58.2905 15.96C58.3651 15.896 58.4505 15.864 58.5465 15.864H59.9865C60.2211 15.864 60.3758 15.9707 60.4505 16.184C60.6851 16.952 61.3998 17.336 62.5945 17.336C63.2451 17.336 63.7571 17.1867 64.1305 16.888C64.5038 16.5787 64.6905 16.1413 64.6905 15.576C64.6905 14.5093 64.0238 13.976 62.6905 13.976H61.0425C60.9251 13.976 60.8291 13.9387 60.7545 13.864C60.6798 13.7893 60.6425 13.6987 60.6425 13.592V12.92C60.6425 12.7493 60.7171 12.5893 60.8665 12.44L63.7305 9.64H59.1545C59.0478 9.64 58.9571 9.60267 58.8825 9.528C58.8078 9.45333 58.7705 9.36267 58.7705 9.256V8.2C58.7705 8.08267 58.8025 7.98667 58.8665 7.912C58.9411 7.83733 59.0371 7.8 59.1545 7.8H66.0185C66.1358 7.8 66.2318 7.83733 66.3065 7.912C66.3811 7.98667 66.4185 8.08267 66.4185 8.2V9.16C66.4185 9.32 66.3491 9.46933 66.2105 9.608L63.4425 12.456L63.6345 12.472C64.6585 12.5573 65.4691 12.8667 66.0665 13.4C66.6745 13.9333 66.9785 14.696 66.9785 15.688C66.9785 16.392 66.7865 17.0053 66.4025 17.528C66.0291 18.0507 65.5065 18.456 64.8345 18.744C64.1731 19.0213 63.4211 19.16 62.5785 19.16Z" fill="#C0C0C0"/>
</svg>
