<svg width="71" height="22" viewBox="0 0 71 22" fill="none" xmlns="http://www.w3.org/2000/svg">
<path d="M6.74792 19.24C4.61992 19.24 3.02792 18.648 1.97192 17.464C0.931916 16.28 0.363916 14.728 0.267916 12.808C0.251916 12.376 0.243916 11.64 0.243916 10.6C0.243916 9.544 0.251916 8.792 0.267916 8.344C0.347916 6.456 0.923916 4.92 1.99592 3.736C3.06792 2.552 4.65192 1.96 6.74792 1.96C8.85992 1.96 10.4519 2.552 11.5239 3.736C12.5959 4.92 13.1639 6.456 13.2279 8.344C13.2599 8.792 13.2759 9.544 13.2759 10.6C13.2759 11.64 13.2599 12.376 13.2279 12.808C13.1479 14.728 12.5799 16.28 11.5239 17.464C10.4839 18.648 8.89192 19.24 6.74792 19.24ZM6.74792 16.48C7.75592 16.48 8.50792 16.152 9.00392 15.496C9.49992 14.824 9.76392 13.888 9.79592 12.688C9.82792 11.76 9.84392 11.056 9.84392 10.576C9.84392 10.048 9.82792 9.352 9.79592 8.488C9.76392 7.304 9.49992 6.376 9.00392 5.704C8.50792 5.032 7.75592 4.696 6.74792 4.696C5.75592 4.696 5.00392 5.032 4.49192 5.704C3.99592 6.376 3.73192 7.304 3.69992 8.488C3.68392 8.92 3.67592 9.616 3.67592 10.576C3.67592 11.52 3.68392 12.224 3.69992 12.688C3.73192 13.888 3.99592 14.824 4.49192 15.496C5.00392 16.152 5.75592 16.48 6.74792 16.48ZM16.3054 19C16.1454 19 16.0094 18.944 15.8974 18.832C15.7854 18.72 15.7294 18.584 15.7294 18.424V17.2C15.7294 16.768 15.9294 16.392 16.3294 16.072L20.1214 12.304C21.7694 11.008 22.9134 10 23.5534 9.28C24.2094 8.544 24.5374 7.824 24.5374 7.12C24.5374 6.368 24.3294 5.776 23.9134 5.344C23.5134 4.912 22.9054 4.696 22.0894 4.696C21.2894 4.696 20.6574 4.936 20.1934 5.416C19.7294 5.88 19.4414 6.488 19.3294 7.24C19.2814 7.432 19.1934 7.576 19.0654 7.672C18.9374 7.752 18.7934 7.792 18.6334 7.792H16.4974C16.3534 7.792 16.2334 7.744 16.1374 7.648C16.0414 7.552 15.9934 7.44 15.9934 7.312C16.0254 6.368 16.2814 5.488 16.7614 4.672C17.2414 3.84 17.9374 3.176 18.8494 2.68C19.7614 2.168 20.8334 1.912 22.0654 1.912C23.3454 1.912 24.4254 2.136 25.3054 2.584C26.2014 3.016 26.8734 3.616 27.3214 4.384C27.7694 5.152 27.9934 6.024 27.9934 7C27.9934 8.072 27.6894 9.04 27.0814 9.904C26.4894 10.768 25.5774 11.696 24.3454 12.688L20.9374 16.144H27.7774C27.9534 16.144 28.0894 16.2 28.1854 16.312C28.2974 16.408 28.3534 16.544 28.3534 16.72V18.424C28.3534 18.584 28.2974 18.72 28.1854 18.832C28.0894 18.944 27.9534 19 27.7774 19H16.3054Z" fill="#303030"/>
<path d="M36.0731 21.016C35.9451 21.016 35.8331 20.968 35.7371 20.872C35.6411 20.776 35.5931 20.656 35.5931 20.512C35.5931 20.416 35.6091 20.328 35.6411 20.248L43.8251 0.639999C43.8731 0.511999 43.9531 0.399999 44.0651 0.303999C44.1931 0.191999 44.3531 0.136 44.5451 0.136H46.1051C46.2331 0.136 46.3451 0.184 46.4411 0.279999C46.5531 0.375999 46.6091 0.495999 46.6091 0.639999C46.6091 0.687999 46.5851 0.776 46.5371 0.904L38.3531 20.512C38.1931 20.848 37.9451 21.016 37.6091 21.016H36.0731ZM56.0849 19.16C54.6662 19.16 53.6049 18.7653 52.9009 17.976C52.2075 17.1867 51.8289 16.152 51.7649 14.872C51.7542 14.584 51.7489 14.0933 51.7489 13.4C51.7489 12.696 51.7542 12.1947 51.7649 11.896C51.8182 10.6373 52.2022 9.61333 52.9169 8.824C53.6315 8.03467 54.6875 7.64 56.0849 7.64C57.4929 7.64 58.5542 8.03467 59.2689 8.824C59.9835 9.61333 60.3622 10.6373 60.4049 11.896C60.4262 12.1947 60.4369 12.696 60.4369 13.4C60.4369 14.0933 60.4262 14.584 60.4049 14.872C60.3515 16.152 59.9729 17.1867 59.2689 17.976C58.5755 18.7653 57.5142 19.16 56.0849 19.16ZM56.0849 17.32C56.7569 17.32 57.2582 17.1013 57.5889 16.664C57.9195 16.216 58.0955 15.592 58.1169 14.792C58.1382 14.1733 58.1489 13.704 58.1489 13.384C58.1489 13.032 58.1382 12.568 58.1169 11.992C58.0955 11.2027 57.9195 10.584 57.5889 10.136C57.2582 9.688 56.7569 9.464 56.0849 9.464C55.4235 9.464 54.9222 9.688 54.5809 10.136C54.2502 10.584 54.0742 11.2027 54.0529 11.992C54.0422 12.28 54.0369 12.744 54.0369 13.384C54.0369 14.0133 54.0422 14.4827 54.0529 14.792C54.0742 15.592 54.2502 16.216 54.5809 16.664C54.9222 17.1013 55.4235 17.32 56.0849 17.32ZM66.3285 19.16C65.3898 19.16 64.5898 19.0107 63.9285 18.712C63.2778 18.4133 62.7871 18.04 62.4565 17.592C62.1365 17.1333 61.9658 16.664 61.9445 16.184C61.9445 16.088 61.9765 16.0133 62.0405 15.96C62.1151 15.896 62.2005 15.864 62.2965 15.864H63.7365C63.9711 15.864 64.1258 15.9707 64.2005 16.184C64.4351 16.952 65.1498 17.336 66.3445 17.336C66.9951 17.336 67.5071 17.1867 67.8805 16.888C68.2538 16.5787 68.4405 16.1413 68.4405 15.576C68.4405 14.5093 67.7738 13.976 66.4405 13.976H64.7925C64.6751 13.976 64.5791 13.9387 64.5045 13.864C64.4298 13.7893 64.3925 13.6987 64.3925 13.592V12.92C64.3925 12.7493 64.4671 12.5893 64.6165 12.44L67.4805 9.64H62.9045C62.7978 9.64 62.7071 9.60267 62.6325 9.528C62.5578 9.45333 62.5205 9.36267 62.5205 9.256V8.2C62.5205 8.08267 62.5525 7.98667 62.6165 7.912C62.6911 7.83733 62.7871 7.8 62.9045 7.8H69.7685C69.8858 7.8 69.9818 7.83733 70.0565 7.912C70.1311 7.98667 70.1685 8.08267 70.1685 8.2V9.16C70.1685 9.32 70.0991 9.46933 69.9605 9.608L67.1925 12.456L67.3845 12.472C68.4085 12.5573 69.2191 12.8667 69.8165 13.4C70.4245 13.9333 70.7285 14.696 70.7285 15.688C70.7285 16.392 70.5365 17.0053 70.1525 17.528C69.7791 18.0507 69.2565 18.456 68.5845 18.744C67.9231 19.0213 67.1711 19.16 66.3285 19.16Z" fill="#C0C0C0"/>
</svg>
