<svg width="71" height="22" viewBox="0 0 71 22" fill="none" xmlns="http://www.w3.org/2000/svg">
<path d="M6.74792 19.24C4.61992 19.24 3.02792 18.648 1.97192 17.464C0.931916 16.28 0.363916 14.728 0.267916 12.808C0.251916 12.376 0.243916 11.64 0.243916 10.6C0.243916 9.544 0.251916 8.792 0.267916 8.344C0.347916 6.456 0.923916 4.92 1.99592 3.736C3.06792 2.552 4.65192 1.96 6.74792 1.96C8.85992 1.96 10.4519 2.552 11.5239 3.736C12.5959 4.92 13.1639 6.456 13.2279 8.344C13.2599 8.792 13.2759 9.544 13.2759 10.6C13.2759 11.64 13.2599 12.376 13.2279 12.808C13.1479 14.728 12.5799 16.28 11.5239 17.464C10.4839 18.648 8.89192 19.24 6.74792 19.24ZM6.74792 16.48C7.75592 16.48 8.50792 16.152 9.00392 15.496C9.49992 14.824 9.76392 13.888 9.79592 12.688C9.82792 11.76 9.84392 11.056 9.84392 10.576C9.84392 10.048 9.82792 9.352 9.79592 8.488C9.76392 7.304 9.49992 6.376 9.00392 5.704C8.50792 5.032 7.75592 4.696 6.74792 4.696C5.75592 4.696 5.00392 5.032 4.49192 5.704C3.99592 6.376 3.73192 7.304 3.69992 8.488C3.68392 8.92 3.67592 9.616 3.67592 10.576C3.67592 11.52 3.68392 12.224 3.69992 12.688C3.73192 13.888 3.99592 14.824 4.49192 15.496C5.00392 16.152 5.75592 16.48 6.74792 16.48ZM22.1134 19.24C20.7054 19.24 19.5054 19.016 18.5134 18.568C17.5374 18.12 16.8014 17.56 16.3054 16.888C15.8254 16.2 15.5694 15.496 15.5374 14.776C15.5374 14.632 15.5854 14.52 15.6814 14.44C15.7934 14.344 15.9214 14.296 16.0654 14.296H18.2254C18.5774 14.296 18.8094 14.456 18.9214 14.776C19.2734 15.928 20.3454 16.504 22.1374 16.504C23.1134 16.504 23.8814 16.28 24.4414 15.832C25.0014 15.368 25.2814 14.712 25.2814 13.864C25.2814 12.264 24.2814 11.464 22.2814 11.464H19.8094C19.6334 11.464 19.4894 11.408 19.3774 11.296C19.2654 11.184 19.2094 11.048 19.2094 10.888V9.88C19.2094 9.624 19.3214 9.384 19.5454 9.16L23.8414 4.96H16.9774C16.8174 4.96 16.6814 4.904 16.5694 4.792C16.4574 4.68 16.4014 4.544 16.4014 4.384V2.8C16.4014 2.624 16.4494 2.48 16.5454 2.368C16.6574 2.256 16.8014 2.2 16.9774 2.2H27.2734C27.4494 2.2 27.5934 2.256 27.7054 2.368C27.8174 2.48 27.8734 2.624 27.8734 2.8V4.24C27.8734 4.48 27.7694 4.704 27.5614 4.912L23.4094 9.184L23.6974 9.208C25.2334 9.336 26.4494 9.8 27.3454 10.6C28.2574 11.4 28.7134 12.544 28.7134 14.032C28.7134 15.088 28.4254 16.008 27.8494 16.792C27.2894 17.576 26.5054 18.184 25.4974 18.616C24.5054 19.032 23.3774 19.24 22.1134 19.24Z" fill="#303030"/>
<path d="M36.3309 21.016C36.2029 21.016 36.0909 20.968 35.9949 20.872C35.8989 20.776 35.8509 20.656 35.8509 20.512C35.8509 20.416 35.8669 20.328 35.8989 20.248L44.0829 0.639999C44.1309 0.511999 44.2109 0.399999 44.3229 0.303999C44.4509 0.191999 44.6109 0.136 44.8029 0.136H46.3629C46.4909 0.136 46.6029 0.184 46.6989 0.279999C46.8109 0.375999 46.8669 0.495999 46.8669 0.639999C46.8669 0.687999 46.8429 0.776 46.7949 0.904L38.6109 20.512C38.4509 20.848 38.2029 21.016 37.8669 21.016H36.3309ZM56.3427 19.16C54.924 19.16 53.8627 18.7653 53.1587 17.976C52.4653 17.1867 52.0867 16.152 52.0227 14.872C52.012 14.584 52.0067 14.0933 52.0067 13.4C52.0067 12.696 52.012 12.1947 52.0227 11.896C52.076 10.6373 52.46 9.61333 53.1747 8.824C53.8893 8.03467 54.9453 7.64 56.3427 7.64C57.7507 7.64 58.812 8.03467 59.5267 8.824C60.2413 9.61333 60.62 10.6373 60.6627 11.896C60.684 12.1947 60.6947 12.696 60.6947 13.4C60.6947 14.0933 60.684 14.584 60.6627 14.872C60.6093 16.152 60.2307 17.1867 59.5267 17.976C58.8333 18.7653 57.772 19.16 56.3427 19.16ZM56.3427 17.32C57.0147 17.32 57.516 17.1013 57.8467 16.664C58.1773 16.216 58.3533 15.592 58.3747 14.792C58.396 14.1733 58.4067 13.704 58.4067 13.384C58.4067 13.032 58.396 12.568 58.3747 11.992C58.3533 11.2027 58.1773 10.584 57.8467 10.136C57.516 9.688 57.0147 9.464 56.3427 9.464C55.6813 9.464 55.18 9.688 54.8387 10.136C54.508 10.584 54.332 11.2027 54.3107 11.992C54.3 12.28 54.2947 12.744 54.2947 13.384C54.2947 14.0133 54.3 14.4827 54.3107 14.792C54.332 15.592 54.508 16.216 54.8387 16.664C55.18 17.1013 55.6813 17.32 56.3427 17.32ZM66.5863 19.16C65.6476 19.16 64.8476 19.0107 64.1863 18.712C63.5356 18.4133 63.045 18.04 62.7143 17.592C62.3943 17.1333 62.2236 16.664 62.2023 16.184C62.2023 16.088 62.2343 16.0133 62.2983 15.96C62.373 15.896 62.4583 15.864 62.5543 15.864H63.9943C64.229 15.864 64.3836 15.9707 64.4583 16.184C64.693 16.952 65.4076 17.336 66.6023 17.336C67.253 17.336 67.765 17.1867 68.1383 16.888C68.5116 16.5787 68.6983 16.1413 68.6983 15.576C68.6983 14.5093 68.0316 13.976 66.6983 13.976H65.0503C64.933 13.976 64.837 13.9387 64.7623 13.864C64.6876 13.7893 64.6503 13.6987 64.6503 13.592V12.92C64.6503 12.7493 64.725 12.5893 64.8743 12.44L67.7383 9.64H63.1623C63.0556 9.64 62.965 9.60267 62.8903 9.528C62.8156 9.45333 62.7783 9.36267 62.7783 9.256V8.2C62.7783 8.08267 62.8103 7.98667 62.8743 7.912C62.949 7.83733 63.045 7.8 63.1623 7.8H70.0263C70.1436 7.8 70.2396 7.83733 70.3143 7.912C70.389 7.98667 70.4263 8.08267 70.4263 8.2V9.16C70.4263 9.32 70.357 9.46933 70.2183 9.608L67.4503 12.456L67.6423 12.472C68.6663 12.5573 69.477 12.8667 70.0743 13.4C70.6823 13.9333 70.9863 14.696 70.9863 15.688C70.9863 16.392 70.7943 17.0053 70.4103 17.528C70.037 18.0507 69.5143 18.456 68.8423 18.744C68.181 19.0213 67.429 19.16 66.5863 19.16Z" fill="#C0C0C0"/>
</svg>
